<svg xmlns="http://www.w3.org/2000/svg" viewBox="0 0 74.32 57.47" style="opacity:0.5">
  <title>globe-white</title>
  <path d="M13.35.62A7.61,7.61,0,1,0,21,8.23,7.63,7.63,0,0,0,13.35.62Zm0,3.38A4.23,4.23,0,1,1,9.13,8.23,4.2,4.2,0,0,1,13.35,4Zm55.78.85C64.22,5,56.85,7.58,48,11.82A20.27,20.27,0,0,0,17.57,29.35q0,.54,0,1.08a86,86,0,0,0-13,11.69A20.7,20.7,0,0,0,1.34,47a5.13,5.13,0,0,0-.19,4.62,4.24,4.24,0,0,0,2.56,1.93,9.94,9.94,0,0,0,3.46.26,37.9,37.9,0,0,0,9.32-2.24,111.59,111.59,0,0,0,11.19-4.7,20.28,20.28,0,0,0,18.64.89,11,11,0,1,0,11-11.69c-.11,0-.21,0-.32,0a20.25,20.25,0,0,0,1.16-6.76c0-.38,0-.74,0-1.11a110.29,110.29,0,0,0,8.79-7.37,41.39,41.39,0,0,0,6.49-7.39,10.94,10.94,0,0,0,1.45-3.19,4.44,4.44,0,0,0-.29-3.22,4.12,4.12,0,0,0-2.32-1.85A8.56,8.56,0,0,0,69.13,4.85Zm.11,3.38a6,6,0,0,1,1.9.18c.37.13.41.23.45.29s.1.24,0,.77a8.29,8.29,0,0,1-1.06,2.22,38.72,38.72,0,0,1-5.91,6.73A147.4,147.4,0,0,1,41.2,35.63c-4.59,2.8-9.08,5.27-13.28,7.37A16.89,16.89,0,1,1,52.47,20.9a1.69,1.69,0,1,0,2.93-1.69h0a20.29,20.29,0,0,0-4.22-5.1C59.07,10.46,65.73,8.34,69.24,8.23ZM54.69,30.75A16.91,16.91,0,0,1,52.9,37a11.15,11.15,0,0,0-6.08,6.68A16.93,16.93,0,0,1,31.46,45c3.69-1.9,7.54-4,11.48-6.45C47.16,36,51.09,33.34,54.69,30.75ZM18.18,34.28a20.25,20.25,0,0,0,6.36,10.33c-3.32,1.55-6.42,2.84-9.16,3.8a35.28,35.28,0,0,1-8.45,2,7.27,7.27,0,0,1-2.27-.13c-.45-.14-.51-.25-.55-.32s-.14-.57.32-1.61a18.11,18.11,0,0,1,2.77-4A80,80,0,0,1,18.18,34.28Zm39.1,5.23a7.58,7.58,0,1,1-7.58,7.58A7.53,7.53,0,0,1,57.28,39.51Z" transform="translate(-0.68 -0.63)" fill="#fff"/>
</svg>
